<svg width="15" height="15" viewBox="0 0 15 15" fill="none" xmlns="http://www.w3.org/2000/svg">
  <path d="M7.83333 5.00504C7.44611 5.00504 7.08958 5.09949 6.76375 5.28838C6.43792 5.47727 6.18056 5.73463 5.99167 6.06046C5.80278 6.3863 5.70833 6.74282 5.70833 7.13005C5.70833 7.51727 5.80278 7.8738 5.99167 8.19963C6.18056 8.52546 6.43792 8.78282 6.76375 8.97171C7.08958 9.1606 7.44611 9.25505 7.83333 9.25505C8.22056 9.25505 8.57708 9.1606 8.90292 8.97171C9.22875 8.78282 9.48611 8.52546 9.675 8.19963C9.86389 7.8738 9.95833 7.51727 9.95833 7.13005C9.95833 6.74282 9.86389 6.3863 9.675 6.06046C9.48611 5.73463 9.22875 5.47727 8.90292 5.28838C8.57708 5.09949 8.22056 5.00504 7.83333 5.00504ZM7.83333 3.58838C8.47556 3.58838 9.06819 3.74657 9.61125 4.06296C10.1543 4.37935 10.584 4.80907 10.9004 5.35213C11.2168 5.89518 11.375 6.48782 11.375 7.13005C11.375 7.77227 11.2168 8.36491 10.9004 8.90796C10.584 9.45102 10.1543 9.88074 9.61125 10.1971C9.06819 10.5135 8.47556 10.6717 7.83333 10.6717C7.19111 10.6717 6.59847 10.5135 6.05542 10.1971C5.51236 9.88074 5.08264 9.45102 4.76625 8.90796C4.44986 8.36491 4.29167 7.77227 4.29167 7.13005C4.29167 6.48782 4.44986 5.89518 4.76625 5.35213C5.08264 4.80907 5.51236 4.37935 6.05542 4.06296C6.59847 3.74657 7.19111 3.58838 7.83333 3.58838ZM12.4375 3.40421C12.4375 3.64977 12.3501 3.85991 12.1754 4.03463C12.0007 4.20935 11.7929 4.29671 11.5521 4.29671C11.3113 4.29671 11.1035 4.20935 10.9288 4.03463C10.754 3.85991 10.6667 3.65213 10.6667 3.41129C10.6667 3.17046 10.754 2.96268 10.9288 2.78796C11.1035 2.61324 11.3113 2.52588 11.5521 2.52588C11.7929 2.52588 12.0007 2.61324 12.1754 2.78796C12.3501 2.96268 12.4375 3.1681 12.4375 3.40421ZM7.83333 1.46338C6.96444 1.46338 6.37417 1.46574 6.0625 1.47046C5.75083 1.47518 5.39194 1.48699 4.98583 1.50588C4.47583 1.52477 4.05083 1.60032 3.71083 1.73254C3.41806 1.84588 3.16069 2.01352 2.93875 2.23546C2.71681 2.45741 2.54917 2.71477 2.43583 3.00755C2.30361 3.34755 2.22806 3.77254 2.20917 4.28255C2.19028 4.66977 2.17847 5.01685 2.17375 5.3238C2.16903 5.63074 2.16667 6.23282 2.16667 7.13005C2.16667 7.99893 2.16903 8.58921 2.17375 8.90088C2.17847 9.21255 2.19028 9.57143 2.20917 9.97755C2.22806 10.4875 2.30361 10.9125 2.43583 11.2525C2.54917 11.5453 2.71681 11.8027 2.93875 12.0246C3.16069 12.2466 3.41806 12.4095 3.71083 12.5134C4.05083 12.655 4.47583 12.7353 4.98583 12.7542C5.37306 12.7731 5.72014 12.7849 6.02708 12.7896C6.33403 12.7944 6.93611 12.7967 7.83333 12.7967C8.70222 12.7967 9.2925 12.7944 9.60417 12.7896C9.91583 12.7849 10.2747 12.7731 10.6808 12.7542C11.1908 12.7353 11.6158 12.6598 11.9558 12.5275C12.2486 12.4142 12.506 12.2466 12.7279 12.0246C12.9499 11.8027 13.1128 11.5453 13.2167 11.2525C13.3583 10.9125 13.4386 10.4875 13.4575 9.97755C13.4764 9.59032 13.4882 9.24324 13.4929 8.9363C13.4976 8.62935 13.5 8.02727 13.5 7.13005C13.5 6.26116 13.4976 5.67088 13.4929 5.35921C13.4882 5.04755 13.4764 4.68866 13.4575 4.28255C13.4386 3.77254 13.3631 3.34755 13.2308 3.00755C13.1175 2.71477 12.9499 2.45741 12.7279 2.23546C12.506 2.01352 12.2486 1.84588 11.9558 1.73254C11.6158 1.60032 11.1908 1.52477 10.6808 1.50588C10.2936 1.48699 9.94653 1.47518 9.63958 1.47046C9.33264 1.46574 8.73056 1.46338 7.83333 1.46338ZM7.83333 0.0467119C8.75889 0.0467119 9.39167 0.0514336 9.73167 0.0608788C10.015 0.0608788 10.355 0.070323 10.7517 0.0892115C11.4128 0.117545 11.9842 0.226156 12.4658 0.415045C12.9475 0.603934 13.3678 0.877823 13.7267 1.23671C14.0856 1.5956 14.3594 2.01588 14.5483 2.49755C14.7372 2.97921 14.8458 3.5506 14.8742 4.21171C14.8931 4.61782 14.9025 4.95782 14.9025 5.23171C14.9119 5.5906 14.9167 6.2281 14.9167 7.14421C14.9167 8.06032 14.9119 8.68838 14.9025 9.02838C14.9025 9.31171 14.8931 9.65171 14.8742 10.0484C14.8458 10.7095 14.7372 11.2809 14.5483 11.7625C14.3594 12.2442 14.0856 12.6645 13.7267 13.0234C13.3678 13.3823 12.9475 13.6562 12.4658 13.845C11.9842 14.0339 11.4128 14.1425 10.7517 14.1709C10.3456 14.1898 10.0056 14.1992 9.73167 14.1992C9.37278 14.2087 8.73528 14.2134 7.81917 14.2134C6.90306 14.2134 6.275 14.2087 5.935 14.1992C5.65167 14.1992 5.31167 14.1898 4.915 14.1709C4.25389 14.1425 3.6825 14.0339 3.20083 13.845C2.71917 13.6562 2.29889 13.3823 1.94 13.0234C1.58111 12.6645 1.30722 12.2442 1.11833 11.7625C0.929444 11.2809 0.820833 10.7095 0.7925 10.0484C0.773611 9.64227 0.764167 9.30227 0.764167 9.02838C0.754722 8.66949 0.75 8.03199 0.75 7.11588C0.75 6.19977 0.754722 5.57171 0.764167 5.23171C0.764167 4.94838 0.773611 4.60838 0.7925 4.21171C0.820833 3.5506 0.929444 2.97921 1.11833 2.49755C1.30722 2.01588 1.58111 1.5956 1.94 1.23671C2.29889 0.877823 2.71917 0.603934 3.20083 0.415045C3.6825 0.226156 4.25389 0.117545 4.915 0.0892115C5.32111 0.070323 5.66111 0.0608788 5.935 0.0608788C6.29389 0.0514336 6.92667 0.0467119 7.83333 0.0467119Z" fill="black" />
</svg>