<svg width="19" height="18" viewBox="0 0 19 18" fill="none" xmlns="http://www.w3.org/2000/svg">
  <g clip-path="url(#clip0_8330_1353)">
    <path d="M5 7.71322H8.1875L7.83333 9.12988H5V15.5049H3.58333V9.12988H0.75V7.71322H3.58333V6.38155C3.58333 5.78655 3.61167 5.32377 3.66833 4.99322C3.725 4.71933 3.81944 4.45488 3.95167 4.19988C4.20667 3.7371 4.56556 3.38294 5.02833 3.13738C5.27389 2.99572 5.53833 2.90127 5.82167 2.85405C6.15222 2.78794 6.615 2.75488 7.21 2.75488C7.57833 2.75488 7.89944 2.78794 8.17333 2.85405V4.17155H7.21C6.75667 4.17155 6.42847 4.18572 6.22542 4.21405C6.02236 4.24238 5.84528 4.29905 5.69417 4.38405C5.47694 4.49738 5.31167 4.65794 5.19833 4.86572C5.12278 5.01683 5.07083 5.19391 5.0425 5.39697C5.01417 5.60002 4.99528 5.92822 4.98583 6.38155V7.71322H5Z" fill="black" />
  </g>
  <defs>
    <clipPath id="clip0_8330_1353">
      <rect width="17.48" height="17" fill="white" transform="matrix(1 0 0 -1 0.75 17.6299)" />
    </clipPath>
  </defs>
</svg>