<svg width="15" height="15" viewBox="0 0 15 15" fill="none" xmlns="http://www.w3.org/2000/svg">
  <path d="M13.4858 6.83255C13.4575 6.25643 13.3489 5.70866 13.16 5.18921C12.9711 4.66977 12.7114 4.1881 12.3808 3.74421C12.1919 3.94254 11.9747 4.15032 11.7292 4.36755C11.0492 4.93421 10.2653 5.40643 9.3775 5.78421C9.50028 6.03921 9.60889 6.27532 9.70333 6.49255L9.77417 6.69088C10.7847 6.57755 11.885 6.60116 13.075 6.76171L13.4858 6.83255ZM6.84167 1.54838C6.97389 1.72782 7.11083 1.92616 7.2525 2.14338C7.71528 2.81393 8.13556 3.48449 8.51333 4.15505L8.75417 4.58005C9.58528 4.24949 10.3031 3.82921 10.9075 3.31921C11.1247 3.13977 11.3136 2.96032 11.4742 2.78088C10.9736 2.36532 10.4164 2.04421 9.8025 1.81754C9.16972 1.58143 8.51333 1.46338 7.83333 1.46338C7.50278 1.46338 7.17222 1.49171 6.84167 1.54838ZM2.35083 5.71338C2.79472 5.70393 3.27639 5.6756 3.79583 5.62838C4.99528 5.51505 6.14278 5.32143 7.23833 5.04755C6.84167 4.34866 6.4025 3.64032 5.92083 2.92255C5.71306 2.61088 5.51472 2.3181 5.32583 2.04421C4.58917 2.41255 3.95875 2.91546 3.43458 3.55296C2.91042 4.19046 2.54917 4.9106 2.35083 5.71338ZM3.4275 10.7C3.73917 10.2467 4.11222 9.7981 4.54667 9.35421C5.64222 8.23032 6.86056 7.45116 8.20167 7.01671L8.24417 7.00255C8.12139 6.74755 8.00806 6.51616 7.90417 6.30838C6.6575 6.66727 5.31167 6.91282 3.86667 7.04505C3.25278 7.10171 2.68611 7.13005 2.16667 7.13005C2.16667 7.8006 2.28 8.44282 2.50667 9.05671C2.72389 9.65171 3.03083 10.1995 3.4275 10.7ZM9.95833 12.3859C9.88278 11.9703 9.78361 11.5359 9.66083 11.0825C9.42472 10.1381 9.14139 9.22199 8.81083 8.33421C7.45083 8.82532 6.30806 9.54782 5.3825 10.5017C4.99528 10.8984 4.68361 11.2903 4.4475 11.6775C4.92917 12.0364 5.45806 12.3127 6.03417 12.5063C6.61028 12.6999 7.21 12.7967 7.83333 12.7967C8.57 12.7967 9.27833 12.6598 9.95833 12.3859ZM11.29 11.6209C11.8378 11.1959 12.2958 10.6882 12.6642 10.098C13.0325 9.50768 13.2781 8.86782 13.4008 8.17838C13.1269 8.10282 12.8342 8.04616 12.5225 8.00838C11.7386 7.89505 10.9878 7.8856 10.27 7.98005C10.5817 8.84893 10.8461 9.73199 11.0633 10.6292C11.1483 10.9787 11.2239 11.3092 11.29 11.6209ZM7.83333 14.2134C6.87 14.2134 5.94917 14.0292 5.07083 13.6609C4.23028 13.302 3.48181 12.7944 2.82542 12.138C2.16903 11.4816 1.66139 10.7331 1.3025 9.89255C0.934167 9.01421 0.75 8.09338 0.75 7.13005C0.75 6.16671 0.934167 5.24588 1.3025 4.36755C1.66139 3.52699 2.16903 2.77852 2.82542 2.12213C3.48181 1.46574 4.23028 0.9581 5.07083 0.599212C5.94917 0.230879 6.87 0.0467119 7.83333 0.0467119C8.79667 0.0467119 9.7175 0.230879 10.5958 0.599212C11.4364 0.9581 12.1849 1.46574 12.8413 2.12213C13.4976 2.77852 14.0053 3.52699 14.3642 4.36755C14.7325 5.24588 14.9167 6.16671 14.9167 7.13005C14.9167 8.09338 14.7325 9.01421 14.3642 9.89255C14.0053 10.7331 13.4976 11.4816 12.8413 12.138C12.1849 12.7944 11.4364 13.302 10.5958 13.6609C9.7175 14.0292 8.79667 14.2134 7.83333 14.2134Z" fill="black" />
</svg>