<svg width="62" height="42" viewBox="0 0 62 42" fill="none" xmlns="http://www.w3.org/2000/svg">
<g clip-path="url(#clip0_8330_1145)">
<path d="M28.4219 40.5967C30.7402 40.5884 32.9241 40.5749 34.9736 40.5563C37.023 40.5377 38.8877 40.5147 40.5676 40.4875V40.3567H5.2897V40.4875C6.96961 40.5147 8.8343 40.5377 10.8838 40.5563C12.9333 40.5749 15.1171 40.5884 17.4354 40.5967C18.0066 40.5806 18.7793 40.5678 19.7537 40.5584C20.728 40.5489 21.7863 40.5442 22.9287 40.5442C24.071 40.5442 25.1293 40.5489 26.1037 40.5584C27.078 40.5678 27.8508 40.5806 28.4219 40.5967ZM28.9259 40.68C28.5227 40.7011 27.7668 40.7185 26.6581 40.7321C25.5493 40.7457 24.3062 40.7525 22.9287 40.7525C21.5511 40.7525 20.308 40.7457 19.1993 40.7321C18.0906 40.7185 17.3346 40.7011 16.9314 40.68C12.6981 40.6661 8.8175 40.6381 5.2897 40.5959V41.0234H40.5676V40.5959C37.0398 40.6381 33.1593 40.6661 28.9259 40.68ZM2.76985 40.2734H43.0875C43.793 40.2734 44.3894 40.2774 44.8766 40.2854C45.3638 40.2935 45.6073 40.3034 45.6073 40.315V41.065C45.6073 41.0767 45.3638 41.0866 44.8766 41.0946C44.3894 41.1027 43.793 41.1067 43.0875 41.1067H2.76985C2.06429 41.1067 1.46793 41.1027 0.980757 41.0946C0.493586 41.0866 0.25 41.0767 0.25 41.065V40.315C0.25 40.3034 0.493586 40.2935 0.980757 40.2854C1.46793 40.2774 2.06429 40.2734 2.76985 40.2734Z" fill="#64B496"/>
</g>
<defs>
<clipPath id="clip0_8330_1145">
<rect width="61.1515" height="1" fill="white" transform="matrix(1 0 0 -1 0.25 41.1899)"/>
</clipPath>
</defs>
</svg>
