<svg width="12" height="14" viewBox="0 0 12 14" fill="none" xmlns="http://www.w3.org/2000/svg">
  <path d="M2.66667 4.66667V3.33333C2.66667 2.72889 2.81556 2.17111 3.11333 1.66C3.41111 1.14889 3.81556 0.744444 4.32667 0.446667C4.83778 0.148889 5.39556 0 6 0C6.60444 0 7.16222 0.148889 7.67333 0.446667C8.18444 0.744444 8.58889 1.14889 8.88667 1.66C9.18444 2.17111 9.33333 2.72889 9.33333 3.33333V4.66667H11.3333C11.52 4.66667 11.6778 4.73111 11.8067 4.86C11.9356 4.98889 12 5.14667 12 5.33333V13.3333C12 13.52 11.9356 13.6778 11.8067 13.8067C11.6778 13.9356 11.52 14 11.3333 14H0.666667C0.48 14 0.322222 13.9356 0.193333 13.8067C0.0644444 13.6778 0 13.52 0 13.3333V5.33333C0 5.14667 0.0644444 4.98889 0.193333 4.86C0.322222 4.73111 0.48 4.66667 0.666667 4.66667H2.66667ZM2.66667 6H1.33333V12.6667H10.6667V6H9.33333V7.33333H8V6H4V7.33333H2.66667V6ZM4 4.66667H8V3.33333C8 2.96889 7.91111 2.63333 7.73333 2.32667C7.55556 2.02 7.31333 1.77778 7.00667 1.6C6.7 1.42222 6.36444 1.33333 6 1.33333C5.63556 1.33333 5.3 1.42222 4.99333 1.6C4.68667 1.77778 4.44444 2.02 4.26667 2.32667C4.08889 2.63333 4 2.96889 4 3.33333V4.66667Z" fill="#F53E32" />
</svg>